<?xml version="1.0" encoding="UTF-8"?>
<svg id="Layer_1" data-name="Layer 1" xmlns="http://www.w3.org/2000/svg" viewBox="0 0 64 64">
  <defs>
    <style>
      .cls-1 {
        fill: #fff;
      }
    </style>
  </defs>
  <path class="cls-1" d="M2.02,0c1.35,2.12,3.37,4.24,5.18,6.03,11.92,11.87,24.11,18.62,37.44,28.17,7.46,5.35,15.05,11.78,18.13,20.69l-5.68-6.04C42,37.19,24.45,30.02,11.04,15.91,6.89,11.54,2.48,5.95,1.02,0h1Z"/>
  <path class="cls-1" d="M63.61,63.61c-8.89-9.55-21.39-13.23-32.36-19.69-7.15-4.21-16.34-10.51-21.34-17.16-1.45-1.93-3.29-4.6-3.54-7,7.36,7.31,15.64,13.48,24.54,18.8,7.4,4.43,15.37,7.99,22.28,13.2,4.12,3.1,8.49,6.95,10.41,11.85Z"/>
</svg>