<svg viewBox="0 0 64 64" xmlns="http://www.w3.org/2000/svg"><g fill="#fff"><path d="m2.02 0c1.35 2.12 3.37 4.24 5.18 6.03 11.92 11.87 24.11 18.62 37.44 28.17 7.46 5.35 15.05 11.78 18.13 20.69l-5.68-6.04c-15.09-11.66-32.64-18.83-46.05-32.94-4.15-4.37-8.56-9.96-10.02-15.91z"/><path d="m63.61 63.61c-8.89-9.55-21.39-13.23-32.36-19.69-7.15-4.21-16.34-10.51-21.34-17.16-1.45-1.93-3.29-4.6-3.54-7 7.36 7.31 15.64 13.48 24.54 18.8 7.4 4.43 15.37 7.99 22.28 13.2 4.12 3.1 8.49 6.95 10.41 11.85z"/></g></svg>