<?xml version="1.0" encoding="UTF-8"?>
<svg id="Layer_1" xmlns="http://www.w3.org/2000/svg" version="1.1" viewBox="0 0 322 322">
  <!-- Generator: Adobe Illustrator 29.0.0, SVG Export Plug-In . SVG Version: 2.1.0 Build 186)  -->
  <defs>
    <style>
      .st0 {
        fill: #fff;
      }
    </style>
  </defs>
  <g>
    <path class="st0" d="M92.7,148.6l-10-.3-58.6,59.9c-1.4,1.5.7,3.6,2.2,2.3l66.4-61.8h0Z"/>
    <path class="st0" d="M142,214.6l1.8-15.7L6.9,279.1c-1.7,1-.3,3.7,1.5,2.8l133.5-67.3h0Z"/>
  </g>
  <path class="st0" d="M319.5,126.8h-136.5S219.6,2.8,219.6,2.8c.4-1.6-1.6-2.7-2.7-1.5l-116.4,125.5H0v12.1l89,1.9,31.3.7,30,.7,1.9-15.4h-37.3l62.8-57.2-10.9,57.2-16,83.7-21.1,110.5c-.4,2,2.5,2.7,3.1.7l28.6-116.4,158.7-75.5c1.5-.7,1-3-.7-3ZM166.7,186.2l11.9-43.4h0l59,1.3-70.9,42.1Z"/>
</svg>