<svg viewBox="0 0 30 30" xmlns="http://www.w3.org/2000/svg"><g fill="#fff" fill-rule="evenodd"><path d="m17.4.6 6 3.5c.8.4.8 1.5 0 2-.4.2-.8.2-1.1 0l-5.8-3.3c-.9-.5-2-.5-2.9 0l-7.1 4.1c-.4.2-.8.2-1.1 0-.8-.4-.8-1.5 0-2l7.2-4.3c1.5-.8 3.3-.8 4.8 0z"/><path d="m16.4 27.3 8.5-4.9c.9-.5 1.4-1.5 1.4-2.5v-7c0-.4.2-.8.6-1 .8-.4 1.7.1 1.7 1v7.2c0 1.7-.9 3.3-2.4 4.1l-8.9 5.1c-1.5.8-3.3.8-4.8 0l-8.9-5.1c-1.5-.8-2.4-2.4-2.4-4.1v-11c0-.9.9-1.4 1.7-1 .4.2.6.6.6 1v10.8c0 1 .6 2 1.4 2.5l8.5 4.9c.9.5 2 .5 2.9 0z"/><path d="m26.4 6.9-3 1.7c-.4.2-.9.2-1.2 0l-5.7-3.3c-.9-.5-2-.5-2.9 0l-6.2 3.6c-.9.5-1.4 1.5-1.4 2.5v7.1c0 1 .6 2 1.4 2.5l3.2 1.8c1 .6 2.2-.1 2.2-1.3v-2.2c0-.2.3-.4.5-.3l.9.5c.6.3 1.3.3 1.9 0l2.7-1.5c.6-.3.9-.9.9-1.6v-3.1c0-.7-.4-1.3-.9-1.6l-2.7-1.5c-.6-.3-1.3-.3-1.9 0l-2.8 1.6c-.8.4-.8 1.5 0 2 .4.2.8.2 1.1 0l2-1.2c.3-.2.7-.2 1 0l1.2.7c.3.2.5.5.5.9v1.4c0 .4-.2.7-.5.9l-1.2.7c-.3.2-.7.2-1 0l-1.7-1h-.1c-1-.6-2.2 0-2.2 1.2v2.2c0 .2-.3.4-.5.3l-.9-.5c-.6-.3-.9-.9-.9-1.6v-5.7c0-.7.4-1.3.9-1.6l4.9-2.9c.6-.3 1.3-.3 1.9 0l4.9 2.9c.6.3.9.9.9 1.6v5.7c0 .7-.4 1.3-.9 1.6l-5.3 3.1c-.4.2-.6.6-.6 1 0 .9.9 1.4 1.7 1l5.9-3.4c.9-.5 1.4-1.5 1.4-2.5v-6.9c0-.4.2-.9.6-1.1l2.9-1.7c.6-.3.7-1.1.4-1.6s-1-.6-1.5-.4z"/></g></svg>