<svg viewBox="0 0 88 88" xmlns="http://www.w3.org/2000/svg"><g fill="#fff"><path d="m85.69 20.5c-.09-9.97-8.19-18.07-18.17-18.16-1.68-.12-15.98-1.09-23.52-1.09s-21.83.97-23.52 1.09c-9.98.08-18.08 8.18-18.17 18.16-.12 1.68-1.09 15.97-1.09 23.5s.97 21.82 1.09 23.5c.09 9.97 8.19 18.07 18.17 18.16 1.68.12 15.98 1.09 23.52 1.09s21.83-.97 23.52-1.09c9.98-.09 18.08-8.18 18.17-18.16.12-1.68 1.09-15.97 1.09-23.5s-.97-21.82-1.09-23.5zm-8.69 46.54v.3c-.01 5.31-4.33 9.62-9.64 9.62h-.3c-.15.02-15.51 1.09-23.05 1.09s-22.9-1.07-23.05-1.08h-.3c-5.31-.01-9.63-4.33-9.63-9.63v-.3c-.02-.15-1.09-15.5-1.09-23.04s1.07-22.89 1.08-23.04v-.3c.01-5.31 4.33-9.62 9.64-9.62h.3c.15-.02 15.51-1.09 23.05-1.09s22.9 1.07 23.05 1.08h.3c5.31.01 9.63 4.33 9.63 9.63v.3c.02.15 1.09 15.5 1.09 23.04s-1.07 22.89-1.08 23.04z"/><path d="m51.63 15.83h-21.51v6.45h6.05l-.19 6h-18.12v34.96l7.53.4v-12.08l3.65.19v-10.9h6.55l-.96 30.94h18.74l-.96-30.94h6.55v10.9l3.65-.19v12.08l7.53-.4v-34.96h-18.12z"/></g></svg>