<svg viewBox="0 0 64 64" xmlns="http://www.w3.org/2000/svg"><g fill="#fff"><path d="m19.19 4.56v22.16l-3.66-2.11v-20.05z"/><path d="m26.51 4.56v26.39l-3.66-2.11v-24.28z"/><path d="m1.83 29.37 19.19 11.08-3.66 2.11-17.36-10.02z"/><path d="m5.49 23.03 22.85 13.19-3.66 2.11-21.02-12.13z"/><path d="m14.64 56.81 19.19-11.08v4.23s-17.36 10.02-17.36 10.02z"/><path d="m10.98 50.48 22.85-13.19v4.23s-21.02 12.14-21.02 12.14l-1.83-3.17z"/><path d="m44.81 59.44v-22.16l3.66 2.11v20.05z"/><path d="m37.49 59.44v-26.39l3.66 2.11v24.27h-3.66z"/><path d="m62.17 34.63-19.19-11.08 3.66-2.11 17.36 10.02z"/><path d="m58.51 40.97-22.85-13.19 3.66-2.11 21.02 12.14-1.83 3.17z"/><path d="m49.36 7.19-19.19 11.08v-4.23s17.36-10.02 17.36-10.02z"/><path d="m53.02 13.52-22.85 13.19v-4.23s21.02-12.14 21.02-12.14l1.83 3.17z"/></g></svg>